<mxfile host="app.diagrams.net" modified="2024-06-18T18:33:47.260Z" agent="Mozilla/5.0 (Windows NT 10.0; Win64; x64) AppleWebKit/537.36 (KHTML, like Gecko) Chrome/125.0.0.0 Safari/537.36" etag="37ufebgdz447Jf8oH7Gj" version="24.5.5" type="github">
  <diagram name="Page-1" id="ycvLj_skd1MdqMB_FMJK">
    <mxGraphModel dx="940" dy="459" grid="1" gridSize="10" guides="1" tooltips="1" connect="1" arrows="1" fold="1" page="1" pageScale="1" pageWidth="850" pageHeight="1100" math="0" shadow="0">
      <root>
        <mxCell id="0" />
        <mxCell id="1" parent="0" />
        <mxCell id="cdJBSbvTCDBfxU9DAR3Z-2" value="" style="verticalLabelPosition=middle;verticalAlign=middle;html=1;shape=trapezoid;perimeter=trapezoidPerimeter;whiteSpace=wrap;size=0.23;arcSize=10;flipV=1;labelPosition=center;align=center;rotation=-90;" vertex="1" parent="1">
          <mxGeometry x="645" y="455" width="295" height="155" as="geometry" />
        </mxCell>
        <mxCell id="cdJBSbvTCDBfxU9DAR3Z-5" value="" style="endArrow=classic;html=1;rounded=0;entryX=0.75;entryY=0;entryDx=0;entryDy=0;exitX=0.93;exitY=1.369;exitDx=0;exitDy=0;exitPerimeter=0;" edge="1" parent="1" source="cdJBSbvTCDBfxU9DAR3Z-43" target="cdJBSbvTCDBfxU9DAR3Z-2">
          <mxGeometry width="50" height="50" relative="1" as="geometry">
            <mxPoint x="530" y="459" as="sourcePoint" />
            <mxPoint x="820" y="500" as="targetPoint" />
          </mxGeometry>
        </mxCell>
        <mxCell id="cdJBSbvTCDBfxU9DAR3Z-6" value="" style="endArrow=classic;html=1;rounded=0;" edge="1" parent="1" source="cdJBSbvTCDBfxU9DAR3Z-22">
          <mxGeometry width="50" height="50" relative="1" as="geometry">
            <mxPoint x="560" y="620" as="sourcePoint" />
            <mxPoint x="715" y="620" as="targetPoint" />
          </mxGeometry>
        </mxCell>
        <mxCell id="cdJBSbvTCDBfxU9DAR3Z-7" value="ALU_result" style="text;html=1;align=center;verticalAlign=middle;whiteSpace=wrap;rounded=0;" vertex="1" parent="1">
          <mxGeometry x="940" y="510" width="60" height="30" as="geometry" />
        </mxCell>
        <mxCell id="cdJBSbvTCDBfxU9DAR3Z-11" value="" style="endArrow=classic;html=1;rounded=0;" edge="1" parent="1">
          <mxGeometry width="50" height="50" relative="1" as="geometry">
            <mxPoint x="1010" y="530" as="sourcePoint" />
            <mxPoint x="1010" y="360" as="targetPoint" />
          </mxGeometry>
        </mxCell>
        <mxCell id="cdJBSbvTCDBfxU9DAR3Z-16" value="" style="shape=waypoint;sketch=0;fillStyle=solid;size=6;pointerEvents=1;points=[];fillColor=none;resizable=0;rotatable=0;perimeter=centerPerimeter;snapToPoint=1;" vertex="1" parent="1">
          <mxGeometry x="1000" y="522.5" width="20" height="20" as="geometry" />
        </mxCell>
        <mxCell id="cdJBSbvTCDBfxU9DAR3Z-19" value="" style="line;strokeWidth=2;html=1;" vertex="1" parent="1">
          <mxGeometry x="870" y="527.5" width="140" height="10" as="geometry" />
        </mxCell>
        <mxCell id="cdJBSbvTCDBfxU9DAR3Z-20" value="Register File" style="shape=ext;double=1;rounded=0;whiteSpace=wrap;html=1;" vertex="1" parent="1">
          <mxGeometry x="950" y="280" width="120" height="80" as="geometry" />
        </mxCell>
        <mxCell id="cdJBSbvTCDBfxU9DAR3Z-21" value="Data Memory" style="shape=ext;double=1;rounded=0;whiteSpace=wrap;html=1;" vertex="1" parent="1">
          <mxGeometry x="1090" y="620" width="140" height="130" as="geometry" />
        </mxCell>
        <mxCell id="cdJBSbvTCDBfxU9DAR3Z-22" value="" style="shape=waypoint;sketch=0;fillStyle=solid;size=6;pointerEvents=1;points=[];fillColor=none;resizable=0;rotatable=0;perimeter=centerPerimeter;snapToPoint=1;" vertex="1" parent="1">
          <mxGeometry x="640" y="610" width="20" height="20" as="geometry" />
        </mxCell>
        <mxCell id="cdJBSbvTCDBfxU9DAR3Z-26" value="" style="endArrow=none;html=1;rounded=0;entryX=0.4;entryY=0.75;entryDx=0;entryDy=0;entryPerimeter=0;" edge="1" parent="1" target="cdJBSbvTCDBfxU9DAR3Z-22">
          <mxGeometry width="50" height="50" relative="1" as="geometry">
            <mxPoint x="550" y="620" as="sourcePoint" />
            <mxPoint x="910" y="500" as="targetPoint" />
          </mxGeometry>
        </mxCell>
        <mxCell id="cdJBSbvTCDBfxU9DAR3Z-27" value="" style="endArrow=classic;html=1;rounded=0;exitX=0.867;exitY=0.85;exitDx=0;exitDy=0;exitPerimeter=0;entryX=0;entryY=0.75;entryDx=0;entryDy=0;" edge="1" parent="1" source="cdJBSbvTCDBfxU9DAR3Z-22" target="cdJBSbvTCDBfxU9DAR3Z-21">
          <mxGeometry width="50" height="50" relative="1" as="geometry">
            <mxPoint x="860" y="550" as="sourcePoint" />
            <mxPoint x="650" y="700" as="targetPoint" />
            <Array as="points">
              <mxPoint x="650" y="718" />
            </Array>
          </mxGeometry>
        </mxCell>
        <mxCell id="cdJBSbvTCDBfxU9DAR3Z-31" value="ALU" style="text;html=1;align=center;verticalAlign=middle;whiteSpace=wrap;rounded=0;" vertex="1" parent="1">
          <mxGeometry x="780" y="650" width="60" height="30" as="geometry" />
        </mxCell>
        <mxCell id="cdJBSbvTCDBfxU9DAR3Z-32" value="Mux" style="triangle;whiteSpace=wrap;html=1;" vertex="1" parent="1">
          <mxGeometry x="490" y="580" width="60" height="80" as="geometry" />
        </mxCell>
        <mxCell id="cdJBSbvTCDBfxU9DAR3Z-33" value="" style="endArrow=classic;html=1;rounded=0;entryX=0.5;entryY=1;entryDx=0;entryDy=0;" edge="1" parent="1" target="cdJBSbvTCDBfxU9DAR3Z-32">
          <mxGeometry width="50" height="50" relative="1" as="geometry">
            <mxPoint x="520" y="700" as="sourcePoint" />
            <mxPoint x="540" y="680" as="targetPoint" />
            <Array as="points">
              <mxPoint x="520" y="670" />
            </Array>
          </mxGeometry>
        </mxCell>
        <mxCell id="cdJBSbvTCDBfxU9DAR3Z-34" value="" style="endArrow=classic;html=1;rounded=0;entryX=0;entryY=0.25;entryDx=0;entryDy=0;" edge="1" parent="1" target="cdJBSbvTCDBfxU9DAR3Z-32">
          <mxGeometry width="50" height="50" relative="1" as="geometry">
            <mxPoint x="420" y="600" as="sourcePoint" />
            <mxPoint x="870" y="510" as="targetPoint" />
          </mxGeometry>
        </mxCell>
        <mxCell id="cdJBSbvTCDBfxU9DAR3Z-35" value="" style="endArrow=classic;html=1;rounded=0;entryX=0;entryY=0.25;entryDx=0;entryDy=0;" edge="1" parent="1">
          <mxGeometry width="50" height="50" relative="1" as="geometry">
            <mxPoint x="420" y="630" as="sourcePoint" />
            <mxPoint x="490" y="630" as="targetPoint" />
          </mxGeometry>
        </mxCell>
        <mxCell id="cdJBSbvTCDBfxU9DAR3Z-36" value="addr" style="text;html=1;align=center;verticalAlign=middle;whiteSpace=wrap;rounded=0;" vertex="1" parent="1">
          <mxGeometry x="1110" y="570" width="60" height="30" as="geometry" />
        </mxCell>
        <mxCell id="cdJBSbvTCDBfxU9DAR3Z-37" value="data&lt;div&gt;(write data from reg file)&lt;/div&gt;" style="text;html=1;align=center;verticalAlign=middle;whiteSpace=wrap;rounded=0;" vertex="1" parent="1">
          <mxGeometry x="950" y="700" width="130" height="10" as="geometry" />
        </mxCell>
        <mxCell id="cdJBSbvTCDBfxU9DAR3Z-38" value="data&lt;div&gt;(read data to reg file)&lt;/div&gt;" style="text;html=1;align=center;verticalAlign=middle;whiteSpace=wrap;rounded=0;" vertex="1" parent="1">
          <mxGeometry x="1230" y="635" width="160" height="40" as="geometry" />
        </mxCell>
        <mxCell id="cdJBSbvTCDBfxU9DAR3Z-43" value="from register file" style="text;html=1;align=center;verticalAlign=middle;whiteSpace=wrap;rounded=0;" vertex="1" parent="1">
          <mxGeometry x="520" y="445" width="100" height="10" as="geometry" />
        </mxCell>
        <mxCell id="cdJBSbvTCDBfxU9DAR3Z-44" value="imm after extend" style="text;html=1;align=center;verticalAlign=middle;whiteSpace=wrap;rounded=0;" vertex="1" parent="1">
          <mxGeometry x="320" y="620" width="100" height="10" as="geometry" />
        </mxCell>
        <mxCell id="cdJBSbvTCDBfxU9DAR3Z-45" value="" style="endArrow=none;html=1;rounded=0;" edge="1" parent="1">
          <mxGeometry width="50" height="50" relative="1" as="geometry">
            <mxPoint x="450" y="610" as="sourcePoint" />
            <mxPoint x="470" y="590" as="targetPoint" />
          </mxGeometry>
        </mxCell>
        <mxCell id="cdJBSbvTCDBfxU9DAR3Z-46" value="" style="endArrow=none;html=1;rounded=0;" edge="1" parent="1">
          <mxGeometry width="50" height="50" relative="1" as="geometry">
            <mxPoint x="450" y="640" as="sourcePoint" />
            <mxPoint x="470" y="620" as="targetPoint" />
          </mxGeometry>
        </mxCell>
        <mxCell id="cdJBSbvTCDBfxU9DAR3Z-47" value="[31:0]" style="text;html=1;align=center;verticalAlign=middle;whiteSpace=wrap;rounded=0;" vertex="1" parent="1">
          <mxGeometry x="430" y="560" width="60" height="30" as="geometry" />
        </mxCell>
        <mxCell id="cdJBSbvTCDBfxU9DAR3Z-50" value="[31:0]" style="text;html=1;align=center;verticalAlign=middle;whiteSpace=wrap;rounded=0;" vertex="1" parent="1">
          <mxGeometry x="425" y="640" width="60" height="30" as="geometry" />
        </mxCell>
        <mxCell id="cdJBSbvTCDBfxU9DAR3Z-51" value="" style="endArrow=classic;html=1;rounded=0;entryX=0;entryY=1;entryDx=0;entryDy=0;" edge="1" parent="1" target="cdJBSbvTCDBfxU9DAR3Z-2">
          <mxGeometry width="50" height="50" relative="1" as="geometry">
            <mxPoint x="841" y="840" as="sourcePoint" />
            <mxPoint x="580" y="560" as="targetPoint" />
          </mxGeometry>
        </mxCell>
        <mxCell id="cdJBSbvTCDBfxU9DAR3Z-55" style="edgeStyle=orthogonalEdgeStyle;rounded=0;orthogonalLoop=1;jettySize=auto;html=1;entryX=0.569;entryY=1.027;entryDx=0;entryDy=0;entryPerimeter=0;" edge="1" parent="1" target="cdJBSbvTCDBfxU9DAR3Z-52">
          <mxGeometry relative="1" as="geometry">
            <mxPoint x="840" y="1000" as="targetPoint" />
            <mxPoint x="848" y="1000" as="sourcePoint" />
          </mxGeometry>
        </mxCell>
        <mxCell id="cdJBSbvTCDBfxU9DAR3Z-52" value="" style="ellipse;whiteSpace=wrap;html=1;" vertex="1" parent="1">
          <mxGeometry x="780" y="840" width="120" height="80" as="geometry" />
        </mxCell>
        <mxCell id="cdJBSbvTCDBfxU9DAR3Z-54" value="ALU Control" style="text;html=1;align=center;verticalAlign=middle;whiteSpace=wrap;rounded=0;" vertex="1" parent="1">
          <mxGeometry x="860" y="820" width="70" height="20" as="geometry" />
        </mxCell>
        <mxCell id="cdJBSbvTCDBfxU9DAR3Z-56" value="function&lt;div&gt;(func7 &amp;amp; func3 fields)&lt;/div&gt;" style="text;html=1;align=center;verticalAlign=middle;whiteSpace=wrap;rounded=0;" vertex="1" parent="1">
          <mxGeometry x="840" y="970" width="150" height="20" as="geometry" />
        </mxCell>
        <mxCell id="cdJBSbvTCDBfxU9DAR3Z-57" value="high signal: ALU_op&lt;div&gt;(from Control Unit)&lt;/div&gt;" style="text;html=1;align=center;verticalAlign=middle;whiteSpace=wrap;rounded=0;" vertex="1" parent="1">
          <mxGeometry x="650" y="850" width="110" height="30" as="geometry" />
        </mxCell>
        <mxCell id="cdJBSbvTCDBfxU9DAR3Z-58" value="" style="endArrow=none;html=1;rounded=0;exitX=0;exitY=0.5;exitDx=0;exitDy=0;entryX=0;entryY=1;entryDx=0;entryDy=0;" edge="1" parent="1" source="cdJBSbvTCDBfxU9DAR3Z-52" target="cdJBSbvTCDBfxU9DAR3Z-57">
          <mxGeometry width="50" height="50" relative="1" as="geometry">
            <mxPoint x="870" y="860" as="sourcePoint" />
            <mxPoint x="920" y="810" as="targetPoint" />
          </mxGeometry>
        </mxCell>
        <mxCell id="cdJBSbvTCDBfxU9DAR3Z-59" value="high signal: ALU_src&lt;div&gt;(from Control Unit)&lt;/div&gt;" style="text;html=1;align=center;verticalAlign=middle;whiteSpace=wrap;rounded=0;" vertex="1" parent="1">
          <mxGeometry x="460" y="710" width="115" height="20" as="geometry" />
        </mxCell>
        <mxCell id="cdJBSbvTCDBfxU9DAR3Z-60" value="" style="endArrow=none;html=1;rounded=0;" edge="1" parent="1">
          <mxGeometry width="50" height="50" relative="1" as="geometry">
            <mxPoint x="830" y="960" as="sourcePoint" />
            <mxPoint x="870" y="940" as="targetPoint" />
            <Array as="points">
              <mxPoint x="850" y="950" />
            </Array>
          </mxGeometry>
        </mxCell>
        <mxCell id="cdJBSbvTCDBfxU9DAR3Z-61" value="Instr [5:0]" style="text;html=1;align=center;verticalAlign=middle;whiteSpace=wrap;rounded=0;" vertex="1" parent="1">
          <mxGeometry x="789" y="930" width="60" height="30" as="geometry" />
        </mxCell>
        <mxCell id="cdJBSbvTCDBfxU9DAR3Z-62" value="from register file" style="text;html=1;align=center;verticalAlign=middle;whiteSpace=wrap;rounded=0;" vertex="1" parent="1">
          <mxGeometry x="320" y="590" width="100" height="10" as="geometry" />
        </mxCell>
        <mxCell id="cdJBSbvTCDBfxU9DAR3Z-63" value="[31:0]" style="text;html=1;align=center;verticalAlign=middle;whiteSpace=wrap;rounded=0;" vertex="1" parent="1">
          <mxGeometry x="640" y="425" width="60" height="30" as="geometry" />
        </mxCell>
        <mxCell id="cdJBSbvTCDBfxU9DAR3Z-65" value="" style="endArrow=none;html=1;rounded=0;" edge="1" parent="1">
          <mxGeometry width="50" height="50" relative="1" as="geometry">
            <mxPoint x="680" y="450" as="sourcePoint" />
            <mxPoint x="660" y="470" as="targetPoint" />
            <Array as="points">
              <mxPoint x="670" y="460" />
            </Array>
          </mxGeometry>
        </mxCell>
        <mxCell id="cdJBSbvTCDBfxU9DAR3Z-67" value="" style="endArrow=classic;html=1;rounded=0;exitX=0.623;exitY=-0.009;exitDx=0;exitDy=0;exitPerimeter=0;" edge="1" parent="1" source="cdJBSbvTCDBfxU9DAR3Z-2">
          <mxGeometry width="50" height="50" relative="1" as="geometry">
            <mxPoint x="750" y="500" as="sourcePoint" />
            <mxPoint x="920" y="400" as="targetPoint" />
            <Array as="points">
              <mxPoint x="920" y="496" />
            </Array>
          </mxGeometry>
        </mxCell>
        <mxCell id="cdJBSbvTCDBfxU9DAR3Z-68" value="zero_flag" style="text;html=1;align=center;verticalAlign=middle;whiteSpace=wrap;rounded=0;" vertex="1" parent="1">
          <mxGeometry x="920" y="445" width="55" height="30" as="geometry" />
        </mxCell>
        <mxCell id="cdJBSbvTCDBfxU9DAR3Z-72" value="" style="endArrow=none;html=1;rounded=0;" edge="1" parent="1">
          <mxGeometry width="50" height="50" relative="1" as="geometry">
            <mxPoint x="750" y="890" as="sourcePoint" />
            <mxPoint x="770" y="870" as="targetPoint" />
          </mxGeometry>
        </mxCell>
        <mxCell id="cdJBSbvTCDBfxU9DAR3Z-73" value="[2:0]" style="text;html=1;align=center;verticalAlign=middle;whiteSpace=wrap;rounded=0;" vertex="1" parent="1">
          <mxGeometry x="730" y="890" width="60" height="30" as="geometry" />
        </mxCell>
        <mxCell id="cdJBSbvTCDBfxU9DAR3Z-76" value="&lt;font style=&quot;font-size: 6px;&quot;&gt;if(InstrType is R-format)&lt;/font&gt;&lt;div&gt;&lt;font style=&quot;font-size: 6px;&quot;&gt;ALU_op = b&#39;10&lt;/font&gt;&lt;/div&gt;&lt;div&gt;&lt;font style=&quot;font-size: 6px;&quot;&gt;if(InstrType is beq)&lt;div style=&quot;font-size: 12px;&quot;&gt;&lt;font style=&quot;font-size: 6px;&quot;&gt;ALU_op = b&#39;01&lt;/font&gt;&lt;/div&gt;&lt;div&gt;&lt;font style=&quot;font-size: 6px;&quot;&gt;&lt;br&gt;&lt;/font&gt;&lt;/div&gt;&lt;/font&gt;&lt;/div&gt;&lt;div&gt;&lt;font style=&quot;font-size: 6px;&quot;&gt;&lt;br&gt;&lt;/font&gt;&lt;/div&gt;" style="text;html=1;align=center;verticalAlign=middle;whiteSpace=wrap;rounded=0;" vertex="1" parent="1">
          <mxGeometry x="630" y="880" width="100" height="90" as="geometry" />
        </mxCell>
        <mxCell id="cdJBSbvTCDBfxU9DAR3Z-77" value="" style="endArrow=none;html=1;rounded=0;exitX=0.75;exitY=0;exitDx=0;exitDy=0;" edge="1" parent="1" source="cdJBSbvTCDBfxU9DAR3Z-21">
          <mxGeometry width="50" height="50" relative="1" as="geometry">
            <mxPoint x="1150" y="650" as="sourcePoint" />
            <mxPoint x="1195" y="530" as="targetPoint" />
          </mxGeometry>
        </mxCell>
        <mxCell id="cdJBSbvTCDBfxU9DAR3Z-78" value="" style="endArrow=none;html=1;rounded=0;exitX=0.75;exitY=0;exitDx=0;exitDy=0;" edge="1" parent="1">
          <mxGeometry width="50" height="50" relative="1" as="geometry">
            <mxPoint x="1200" y="870" as="sourcePoint" />
            <mxPoint x="1200" y="750" as="targetPoint" />
          </mxGeometry>
        </mxCell>
        <mxCell id="cdJBSbvTCDBfxU9DAR3Z-79" value="high signal:MemRead&lt;div&gt;(from Control Unit)&lt;/div&gt;" style="text;html=1;align=center;verticalAlign=middle;whiteSpace=wrap;rounded=0;" vertex="1" parent="1">
          <mxGeometry x="1155" y="507.5" width="120" height="15" as="geometry" />
        </mxCell>
        <mxCell id="cdJBSbvTCDBfxU9DAR3Z-81" value="high signal:MemWrite&lt;div&gt;(from Control Unit)&lt;/div&gt;" style="text;html=1;align=center;verticalAlign=middle;whiteSpace=wrap;rounded=0;" vertex="1" parent="1">
          <mxGeometry x="1130" y="880" width="120" height="15" as="geometry" />
        </mxCell>
        <mxCell id="cdJBSbvTCDBfxU9DAR3Z-83" value="" style="endArrow=none;html=1;rounded=0;" edge="1" parent="1" target="cdJBSbvTCDBfxU9DAR3Z-16">
          <mxGeometry width="50" height="50" relative="1" as="geometry">
            <mxPoint x="1160" y="620" as="sourcePoint" />
            <mxPoint x="1030" y="690" as="targetPoint" />
            <Array as="points">
              <mxPoint x="1160" y="533" />
            </Array>
          </mxGeometry>
        </mxCell>
        <mxCell id="cdJBSbvTCDBfxU9DAR3Z-84" value="" style="endArrow=classic;html=1;rounded=0;exitX=0;exitY=1;exitDx=0;exitDy=0;entryX=0;entryY=0.25;entryDx=0;entryDy=0;" edge="1" parent="1" source="cdJBSbvTCDBfxU9DAR3Z-38" target="cdJBSbvTCDBfxU9DAR3Z-85">
          <mxGeometry width="50" height="50" relative="1" as="geometry">
            <mxPoint x="880" y="640" as="sourcePoint" />
            <mxPoint x="1420" y="675" as="targetPoint" />
            <Array as="points">
              <mxPoint x="1360" y="675" />
            </Array>
          </mxGeometry>
        </mxCell>
        <mxCell id="cdJBSbvTCDBfxU9DAR3Z-85" value="Mux" style="triangle;whiteSpace=wrap;html=1;" vertex="1" parent="1">
          <mxGeometry x="1450" y="740" width="60" height="80" as="geometry" />
        </mxCell>
        <mxCell id="cdJBSbvTCDBfxU9DAR3Z-86" value="" style="endArrow=none;html=1;rounded=0;" edge="1" parent="1">
          <mxGeometry width="50" height="50" relative="1" as="geometry">
            <mxPoint x="1380" y="810" as="sourcePoint" />
            <mxPoint x="1400" y="790" as="targetPoint" />
          </mxGeometry>
        </mxCell>
        <mxCell id="cdJBSbvTCDBfxU9DAR3Z-87" value="" style="endArrow=none;html=1;rounded=0;" edge="1" parent="1">
          <mxGeometry width="50" height="50" relative="1" as="geometry">
            <mxPoint x="1390" y="730" as="sourcePoint" />
            <mxPoint x="1410" y="710" as="targetPoint" />
          </mxGeometry>
        </mxCell>
        <mxCell id="cdJBSbvTCDBfxU9DAR3Z-88" value="[31:0]" style="text;html=1;align=center;verticalAlign=middle;whiteSpace=wrap;rounded=0;" vertex="1" parent="1">
          <mxGeometry x="1390" y="680" width="60" height="30" as="geometry" />
        </mxCell>
        <mxCell id="cdJBSbvTCDBfxU9DAR3Z-89" value="[31:0]" style="text;html=1;align=center;verticalAlign=middle;whiteSpace=wrap;rounded=0;" vertex="1" parent="1">
          <mxGeometry x="1350" y="810" width="60" height="30" as="geometry" />
        </mxCell>
        <mxCell id="cdJBSbvTCDBfxU9DAR3Z-90" value="" style="endArrow=none;html=1;rounded=0;entryX=0.485;entryY=0.864;entryDx=0;entryDy=0;entryPerimeter=0;" edge="1" parent="1" target="cdJBSbvTCDBfxU9DAR3Z-16">
          <mxGeometry width="50" height="50" relative="1" as="geometry">
            <mxPoint x="1010" y="680" as="sourcePoint" />
            <mxPoint x="1230" y="600" as="targetPoint" />
          </mxGeometry>
        </mxCell>
        <mxCell id="cdJBSbvTCDBfxU9DAR3Z-104" value="" style="endArrow=classic;html=1;rounded=0;exitX=0.117;exitY=0.979;exitDx=0;exitDy=0;exitPerimeter=0;entryX=0;entryY=0.75;entryDx=0;entryDy=0;" edge="1" parent="1" target="cdJBSbvTCDBfxU9DAR3Z-85">
          <mxGeometry width="50" height="50" relative="1" as="geometry">
            <mxPoint x="1006.5612431654858" y="732.346592046001" as="sourcePoint" />
            <mxPoint x="1170" y="590" as="targetPoint" />
            <Array as="points">
              <mxPoint x="1007" y="800" />
            </Array>
          </mxGeometry>
        </mxCell>
        <mxCell id="cdJBSbvTCDBfxU9DAR3Z-109" value="" style="shape=stencil(lZrbchw3DES/Zl9Rwzv57Dj/4SrL0VYUySXLufx9MNmMJbHpI+3bet2t5ZBAowHOKX34dvvp680pbt+eHh9+v/nr/Pnp9pR+OcV4vr+9eTw/+adT+nhKH748PN789vjw/f7z5d9fP+3I/dMfD3/uf+HvCy9uNsLOits/l28227b/vvj1gr8737/EB+txwscA+Ghlm/EZ8MlqnvCZ1pOttQlfKuCLPm+LgK/6vKMBvllLr/DBQgJ8n5838H4OK2XGj5/jk2/fVfhgqV6DjxbbNfhkoV+Dz7aNa/DlCN9nfILzShIP4diwNV7iIViB801tjv9gldbfLc/r6bSeYen1euKxYUt8lniIliH+s+R7tAb5m9O8/mQb5GMuFtOETx3wzbYy4Rvhxxw/2QLsT9ms9glfIB+L7E+2DvFQ4qwP2QatR/KlWIB4KKKfxRKtP8/xUyzDfpYyx0+xTnjJl2qR8KKH1RrET5V4bhZhf6qn65jwBfShynk163BeNVl/rZ8d9byKXnXUn1pnfe7WoD5W0Z9uA/K3iv6MIwDXeKlH4/jBJb6J3xhHgKzx4h/CZgEeoGnB2I4lrgn1+Hs/CF6y4cialnjXdIihNmaPEiKaoC6i4oQOu9q1qiYsk11skxMaPEPXOulCSgQtlNkyLanZKDNh0EOLtIeCtWOoF/Kzh18Yeg5efuChR5Rn6LbBSQ+N1oGhMUQv3JCSoRhycF7BI2TckIPbSyYk0BCJcc3eIIGGnLSLaqUl9Tm8d1WiJQnBfTCV/QXBRQDqzpIwriNEdI4LQkJrp9vqBMq4IULmhEEJJCft9jzTQ7e5O3BCv45Qjm/eTyj80EoYHK0zoR6e9f0EqkBLAsaSEpplUg09OA8WyjgNjR/G4L3B160TQcN7YKe8JJBVWhKoxinBuyWsDysCdVNLArVTC0LAfmpJwKIohs8JjQ9ucujZW04+uMkSOyHRwWnPFtFgLQgJp1hLQqKDWxEqHZz05U6gRmmIkc7ZIj/DZOGcQE4gbNvsHfbuGw5ixahH//1uRsMGYvEYneVVN2pgS6nxV3imqFpWeIineuxtPjog6eKcQF7XXdw0lvBGv1zlE73Tx0IqTrTwJGPoZMLtN1VeGRU6Acuc9OqlcpkLcyvnBCxzMu0pjcvcNo+rCs8DuoR34Qa/i3AU1x54hq7hPbAIdRFwJ2CjJSWibjhU0lbOCVRTuviTGtCvdxkDPg92ftaOThlXPUVBNbThdQLdLHRJ0Zqw9+sy+nRCpV2Spr2+0YPLMKq+0VLLtKUW7My6ZFz1FAXVaBpLDVWj6bZ2rItNJnZ14ElXyTj/Bmd8Ivdt46GdiHEL2MpVmSM4odAzyLWNE6iVK2JofN+olSv60NE6BJ9OiltC26ejayc0IkhBaTypKDoszpjTWaTSw5Fy2u3RPF4uOL92zza5mVaxAmUNjYrRmnXi3XA2qFdETqDQSOLIGs9zkpQsJ9BYQG/FXEeoM0tSgXbhoSVJBXJCpSXJmMwJNMnWm0Yn0NVPErlvPPVKmkADtTXFuYruo+qrbpM7z9WiyIwTKt3n631F4BcS9EIk8BsGUnadQFdeUZyxE6j3i+KM94E+/YIImRdifAtA5L7zMDGKb3XCAELQg0voNYJknBMS/YIkUOdxZZAEcgKlaBBtdQdFw5Mg2uoE6rKC2B83daRLUk8cT02WlJPdx5J2z5LReZKokcqDRA3UhuVN47RjNks/5nhKZg3rjjEk0wnHN9h/xQ+cf+h6BtZa1dOBLYDuz8DrXL1t9RXCea3wlGIrPNlOxXuEQDxIfjm+kqjM8TZ4NineyPHUvsiFoOMpfxWfMJ5XeCo1is/oT1d4yvcVnl5HUnzhqrHAYw1Y4OmWQfEV3x5Y4cn6rvD0OpLiG9aLFZ5s7ApPLZTiO15wr/BUj1Z4GgQpfryRv4pPV53XOBT1ffgXA+7/Cf7h+eXaL+e7u8u7uS//f34Z17+6vMibPv4L);fillColor=none;strokeColor=default;" vertex="1" parent="1">
          <mxGeometry x="1006.1515574269481" y="679.5627758471996" width="19.047629616477273" height="53.76623376623377" as="geometry" />
        </mxCell>
        <mxCell id="cdJBSbvTCDBfxU9DAR3Z-110" value="" style="endArrow=classic;html=1;rounded=0;exitX=1;exitY=0.5;exitDx=0;exitDy=0;entryX=1;entryY=0.5;entryDx=0;entryDy=0;" edge="1" parent="1" source="cdJBSbvTCDBfxU9DAR3Z-85" target="cdJBSbvTCDBfxU9DAR3Z-20">
          <mxGeometry width="50" height="50" relative="1" as="geometry">
            <mxPoint x="1200" y="590" as="sourcePoint" />
            <mxPoint x="1250" y="540" as="targetPoint" />
            <Array as="points">
              <mxPoint x="1510" y="320" />
            </Array>
          </mxGeometry>
        </mxCell>
        <mxCell id="cdJBSbvTCDBfxU9DAR3Z-113" value="" style="endArrow=classic;html=1;rounded=0;entryX=0.5;entryY=1;entryDx=0;entryDy=0;" edge="1" parent="1" target="cdJBSbvTCDBfxU9DAR3Z-85">
          <mxGeometry width="50" height="50" relative="1" as="geometry">
            <mxPoint x="1480" y="850" as="sourcePoint" />
            <mxPoint x="1060" y="650" as="targetPoint" />
          </mxGeometry>
        </mxCell>
        <mxCell id="cdJBSbvTCDBfxU9DAR3Z-114" value="high signal:MemtoReg&lt;div&gt;(from Control Unit)&lt;/div&gt;" style="text;html=1;align=center;verticalAlign=middle;whiteSpace=wrap;rounded=0;" vertex="1" parent="1">
          <mxGeometry x="1420" y="850" width="130" height="22.5" as="geometry" />
        </mxCell>
        <mxCell id="cdJBSbvTCDBfxU9DAR3Z-116" value="" style="shape=image;verticalLabelPosition=bottom;labelBackgroundColor=default;verticalAlign=top;aspect=fixed;imageAspect=0;image=data:image/png,iVBORw0KGgoAAAANSUhEUgAAAOYAAAB2CAYAAADcDO/4AAAAAXNSR0IArs4c6QAAAARnQU1BAACxjwv8YQUAAAAJcEhZcwAADsMAAA7DAcdvqGQAACE8SURBVHhe7Z0LWFTV2sf/xB0RhUAUxRthHjWxSE0zU8tblvRpRllx1OpgX32f1vFyTualRPsUNTVT80QX0w5xRFFA0QRvJJigoGKCMshFRq4DMugAw7zf2jMbGWAGBpnRwWf9ngedvdbal3nXevde75q1/tuCGOBwOGbFI+L/HA7HjOCOyeGYIdwxORwzhDsmh2OGcMfkcMwQ7pgcjhnCHZPDMUO4Y3I4Zgh3TA7HDOGOyeGYIdwxORwzhDsmh2OGGDyJ3cLCQvzE4XCMTWM3bNXqEsE5W1Gcw+G0gD6f4l1ZDscM4Y7J4Zgh3DHbBUrIi3ORkXwU4aeyUSumNoSglBcjNyMZseHxuH63EEsvuoBj8RkoU/IwpPU8IPsJMaahtLK4SBklBU8iR78QSq9WiWnaFFPSziAKHOOpPj68ptK8oN2UJFOK+SKyJNq5MpDGOLIycCTvGQtpQ4yE6kopJTG04bMAGurYjYYGfEmHJHfEnAeFimrKiklWo+s7twYl++q7aWXgWHJk9vEKTqIaMacB2vbxCqakukIqCYW+6cVs5kPzYm6KieZAo3pHN/KdMpMCZowhL2F71DZKa9QE7g/VVFZUVm9jE9tPn0+Z3jErT1PQIEe27yQKTioTExtTQ/nhgerjIyCc8sXUJihTaNOTwrFG0NKTJWKiFqosCvWfS6E51WLCA6I2j05u+ZimeM2l8HydbtRqapKC1Q1Wr2MK1CRRsFcjx6RSStrkT95DP6Y9mZVimrmgp96Felx1QH87MBG1+Sdoy/yp5NWgDZrWfvp8ysRd2VqUnorEQdse7HMMNuxKRKlwKfeKpQt6POHOPtjCycFGk6aNhSWsbW1hbfWAf9pR3cSZr75CNLzQy81KTHxQOMP3f0OR8ccGTO/rIKaZORYueGrKYHbl9xdV/h/4auMB4IlecBPTHpT9TOuYdAPHw62x5JuFeJX1w6TfheG33Gox88FBihtIPrIfe/fuxd6oBGTJ6wKyGpRlxGPv919j3bp1WLf9FxxOLWQRnohSjqKsS4iPOoLUMgVkl48jgh0j4sh5SBUqsVBjCLXKWvYvixOLriMt/hDCE/NQJU3E7s2hSC4Tzt3CedsCKVCWl4Hk2Gicuq4QE+uu5SCiU0uglF1GXASzRcRvSJbeZtfaEFJIceFYtNpeTb6rsgiXj+3F95uF696NyHgJ5G25+bKzK6RlcHy8J+yEzbs2j0SitEadr5QXIivtd8SEnhJj6bq0eERFX2CxYAkuxx1g17sfR5JvQNHkelTsHOdxRPjOeyMQpfOaa6EUYkqd9hNoqc5aZ+MmiE9Og2hlcarN3EVvLztB5apsCp/dn+3fjcZvu8h68Y0xsCtLORQeIPT3x7BucYWYpo2QP6+Z7qOSKjKjKchvMgV89iUFq2Oyt2inRMHy7lD2gUUsRh1B80LPU05+Gh1aNpnFdU/S7NAMqq7NptjNi2iGt9CVfpVWbv2CZvlPozFewrYj9V98lEqEcFJVQGe3f8COo7a9+s9z6RG6HPstLQ0Yod7uvXAjbfb3Zp8D2bVWNH9e9XXfa1dWO46rs5mCcmK30aIZPizNk6as3EhBs96kGWOE62H79v+MYkvuRu5Ukb6Plvn509I9p+js0a00y9uZvGeHUqYwXlAjofC5o2js0gi6lJNHmWd30fyx67S60S2hVe8zQiglP5/y87MpaVuwpg6VEorZsFC0uWCrGqrNiaUtSwPIV9jnyU2Uwi5VSNu8aAZ5C2lTltHWoPfJvy5WxUhaHFvAIn4RVTllRq0iv7Gz6LO1azWxu99OulaYSNsDR6njeE29CeFSug77CbTQVlphY2FbFyZ0zApK2fSRGFfWUvnJFdRfuKhBqymhsvGAyP1xTFX+AfrA21Pr5lBGCatXU4xgpPITtLQ/awAjN1NKleb6VAWRNNdZ+5rrzj+C5kdms6tWUQ27+fg3HnDRGeupSJGwinqz7+g4dQOdyMyiSzExlJQdZ8B5hUPea4xZQUnBYxrZrM7e7IYyP5JuCANUNem007+RbavTKMSvNznPiyFNRM/sFTSKlfGjbWmVVJseQhMwlDX8QrHhl1FS5GkqUn82BK169w2gpcHBFBz0Cc3w/VCrDutsrnFMNfKTtNST7aPdVvLDKUA4Tv+FFHlDc6PN3Dmr0YBZNeVHfswceBq7frk6hVUKrV6o+X66bazDfga1FcNsrM+nTNeVvX0RUTEeeMrtNqTSAlR6PIWp/ZmZLv2Cn+Ly2Te439Qg7+Q+bLvqhQlDe8NaneaEIXPmYLizJWqzUhB1RQ481h1dbDQxqoVLN3i5sA+XriK7RLtjORjP+XrAChaw6tkfTwthb4tYwNLaBpbwxAuvvYLn+vbGwIkTMUTG7GTweY2NO4Y95wMPISa38sCApz3FdA108yKO7L8OO9b1/zM5GcnJF3C16A7LSUeKpAwWdh3wqONZrPmbP2Yt/hLbd59GzYD+6KzZvXUM9MMHCxZgwZI12PTpIDFRD7YOcNIxxKBm2DPw9bBlH+zQc8BA9g21YKHVyV37cNVrBIb266BJsx2MOR8/06p4tnVtpXkb68NEjqkZ9DnZswrnwnZj9272t+8KOj4/FI64hF0hccjSF5IZhAx5xZXiZy2oCpVye3Sw1RirIVUozM1S/3/rdl2cawE7d3d0ZsVJWY1bYupdLB+F59PsGQc5Ku/o/vWw9digUwdbdmYN9++8rae2MBdJ7H9pejrSi4W4yAED3vkWSSlRCHqxKyw8J+GzkOWY0fkKdq79FB+8/RJG+MzB1tQm36gVWMJtwpuY4GYpbhuR2hLkJl0HquW4XVX3aHCAe7dOd+vDEO5HnZnGMYVBnzA55nz6KRYId0H130Is+TQQr7CHpjziF+w9Xy4WbgHKx+/Hr0HjSpawsReedYX484aMhfANIVkmzsl6wbOTrkq1hot7d/b/FcSezxGPV88jHV3AujHAzTJU1B1YVY6CjGLAuSe6u2qesW2nGuWVVXd7DPfvvK3HyqMvnhU+VPeA79hReNrXF77Cn48XXO1Y06ksQc3QhQg7K4Es908c3/QWnOUXkZxpYN3qhPVCHDvBscnIejVq6n7gr7qNW/cyhmjZCe6D2BMrNwnnr+m4sRvI/agzEzgmoebPQ/hWNQajPRv2Nyw8R2Hm20I3JR4h/0ky6KcTYl29SObEmgt1w1MTxrJuhxRH/m89dpzMQLEwQkgKyLISsGvlVlx/ezS8dd5sbdBj+Dj4OcpwestW7BJGytTpmtG3R/o8A38/dsc7/TvO52lqncpvIusm0P9vkzGUdXfrYXdFRTN3RQsr2DixO1BpBi5fyUWetJydi1h7krPmlYtLBeV3Z++07rzGpuFNognuT+DFV4Vr+xpffnsGRWrHUEFRLGV2Z58rLmFfvBRkYYfOPfpj9CsTMRrd0MvNmD8r2KCDM7MlazP7IhIgybmEo9/9gP/IWJKkELLG1VBeqWMUVsTCA8OnPsd6bSewZWMYUmXCKC+jVgnhq1lY2bDghlVb2mVckd6AtEy397euzlqwsT7EWNMgWi4ujEZtpnlT+muC+a9iSHJ39oYwQriG5QnBL7tOx7EU+OUhTX5FKoUEPKlJ9xpDMwICKCBgujji2SgYr7lBCSGLaYqYd/fPcRQFboun/OZm2qjKKC10oTh7SDPT5G3/5RSVLwwFKakiLZTmj+lN3v4r6ac9v9DWeZNpxNxddKlCGPrLptgtn1GArzPb14umzPuGYnMU6sGDoN7C+cfS3I3RlF5Ry45VTimbXtWM8Dm/ScGnJZR9MoSWiaOyzlPm0dodJylfKNrSeamWKlLCKEic+eM4JpCCQlOoydBXRQqFBokzfwTbBoVRSkUJpYSuFkcVPWlM4GoKTbnJ6qh+hNh5ynzaHJvNzlI3sMPKzd1Ikenl7KAqqsk/SqumCiPq7LhC3cyYQGPn/ELpVSrN4I/jeJq39RcK3/MDBb05lWZtjqfCZqqgnkbtwXsGLVq7jWKazNhSUmnCVzRVrG/HsSvpqCROY3PnKTRvXQxdzdIaqRXSNsdSTq3WYNuYD2lj5J9qm6kqLlLo/PGaunH0pSlvv0X+/4imfOGaK5Np03jNTCTnGRvpdL5Uh/1k6mtqvs4EPzDMxkK+Ltrtsi9SyHAjJxcFFeyuZ+UED68+6OZoyI/57I4vy4VEUow7Vp3R6/E+mm6ZCClKkS3JRskdwL6LF/p5OuGepggIv38VyNg5OsLN1bHFYxjtvKZAKYdUIkF+RS3sH+2Fvr1cYKfuaQq/H96EJDMfFUprOPXqh8dc7VoVrxmGcJ5SFLG6tu7oCleD6rkZhB5WtgQSZmwrp554/DE38fsIWWUokClgZcB5jFFn+nyKr8fkcB4gfD0mh9OO4I7JMRnC04Bzb3DNHw7HDGjshjzG5JgM3l5ahseYHE47gjsmh2OGcMfkmB9UBXmlKSfvmz+miTGV+Uj89QDOVtnAviQTmY+MxOzASejnWDdVqQrSxAhEnK2Arb0MGZm2GDX7r5jSr24ycVvzOebAvcWYhJqMH/DGms74+rtp8GhUoSppMiJPxGHvsi+RMGobYr59HX2tGxYSyhzY/zNWfw/MWfwqxj3bFXm/x+HAms+wSfUKlr7xhHrqnbCY+VbOOZzLcceIadMxc9pz6HO3jd4f9NpIcExDMax4BV3a9hH94+7i1EpKD3mLBtUtJGapdy7toJn/qN+uTg8hv0F1i0fbms8xF1rZvEQ04m1wnEkh6fo0dnIo/KMx5OvsSeODE6lc09AaorXOUkMJnVw6ghwDI6lQTNGgoprSi7Rn8SRyHruKThTWr8S8H+izkfG7srf+wM4Nj+Kl4W7i08sB3mMnwuub/ThdLMw4LsHpndHweulJuKgLWMDaezSmex1C2OkCI+Rz2jNUeg6/2byJf71yDt8dSMNtMb0JvT7Atp1vIHfhP/DlMSl7zjbC0hoderiKT0YBGzg42cL9sW6N1l5awMp5EKavWIPVHb9H4PoTbdOlMhJGd0zl1XMI79MT7vb13QsLD28Mdb2IKzl3WIFsnAu3QW93rRUIFm7wHmqPo1ekULY1X0zitEdqID15AV0nvYqpMyfiSsgBJJbqW8XjgB5T/oGfgzthy9yVCJPodWHDsHscE197Ble+2YPjNx98KzKyY9ZCJs1BQdfO6Kh9ZHb3srVUoqqGGVkmxbUCF3TuqD3dV1C3s0JtVQ1q25ovpnDaIdVpCD/dCxO8ndBlnD/+bhWBXcdvNH0a1mHhgqfnBeO7UYl4b+4OJN1qS+3bwnPAEHjJr0CSry269WAwsmMSlNXVkItbd7EUFqjWoqicfWFlNe40KaBZxFxeVI7KtuaLKZz2Ri1K449B/spzmgEfhyfw8vu98MP2Q/izppm+pbU3Xl+zAX9XbsI7yw8hv24xdTvH+DGmLlSVkOXYoYerqLPSBCVuyUrg0iAm0Kat+RyzR1C9+LcEzioJktX6Qumoch+IQb+FYl9y84oIFm7PYcHmJfD56RN8EnLhHuUzxYXsjv3R10MtnPlAMbJjskDaxgaO2pILAqRE9S0nONqz01nZwN6xFGUV2v144Ulbi26OtupV5G3KF1M47QlC9YWDOPT4JDztWN8kLR+bjI8DZVj/UzwKm3U2SzgOegcbdr6K1AX/xLpTN9kRW0slrp1PgnzGeDzTtbWrKo2PkR3TEi59B2DInyzOvKNlmlvFyHMajiG97QGX3hgyRIrrBdrBeiWK8zpi0pAesGxrvpjCaUdQEeJ/vYHJMyfU6wqp/57HG7P80X3XrzicVSUW1octPITBoOU2WP/eCuxKb/yUVbBQp0LPOAS7secfx4//csLqv09o8tvpg8DoXVnLx0birb+k4MyVOh0xwu2Mi8ibNRGDHdg3tuyD597qjtgzmfVD4bdZ9yVvHF4e3Knt+Zx2BqHmahS2qsbiRY/GIlYWcHhqMt4ffALb9l5o+NNJTh4KG3vY3cGgP/Dfc1ciRpT00XAHZawndz0jH6ViigZBUT0SX3zwb7htWov3Bgr6Qg8eE8z8qYU8LRSLVqVj9P+8gaccMnBgnwKTF8zAQHFWBckvYNeijbg8+l3MesoOfx6IReXkQMwcqJm509Z8jnnQcnuphjQ5Ers3r0GY8ywsnvoiJo7rh7uuIc9A3JETOPz1cqxNHY2g7QswZ5IT/oz+D7YvvgifNbPx8vgX4OPasOtJsnh8OX0mvn9pH64s8IUVc35FTjSWvxaAtWUvYtH7w+CmbihVuFVUimq34XjVfwqGe3a47+1Hn41MtuyLFEW4lp6L2w6eDTRV7kIKFF/LQPbtDk10d9S0NZ/zwGlNezE6SjkKyizQxfX+O1truO+OyeHw9tIy+mzEHzMcjhli8BNT8GwOh2MaGrsh78pyTAZvLy3Du7IcTjuCOyaHY4bwrizHZNxLe9G8okCG0qIadHR7FM5uLjre/PXwoM9GpnFMk0uLMJQySM7GYe+OKNjO34L/8dE3QZ7zoDDcMYlVZxoOff8rTlt5Y2j/3uhmfQs5GQnYF5UD72mB+NvMkfC0e0QjLXLyFA4Ff4Fv8QqWvfciBrsBhalH8XNMDV5c8CkWzRgEx3biy3ptJDimoRhW3NTSIndIErWJgjbupqMxX9FU7VeAc8wKw9qL8EaxI7TM70MKuVTGtrQRZD+SKWSWL3nP+lF8k5aA5vXvnktPkvjCdkYVFcauoKGYRMFJZWKa+aPPRsaPMU0uLWIDjxfm4tN5M/HC4J739lpxjvmglCD80y+QG7AIs5tMqRRkP55EwOeL8Oz+FVgSlg7t6a82Tg4QXuquwQZuQ57BSOeruJjdljdamwdGd0yTS4uwS7a1s2lUgZz2CaE67SA27xmEl0d46KlT5pw9x+Gd9x/F/s0HceHuK9qbQuWFuF4zHM8PelRMab8Y2THvg7SImMJ5GFCi4Mp5nHb3Qi+35tZAdoL3U4OB1GvI1qkBpIQ8Jx471p7E0D2rMLOf1k29nWJkxxQWLJtYWkRM4TwMVKEwN0v83BzsqWltI37Wphr5UZ+gn4U33gpTYnLwNiyZ2BsPXn+g7Rg/xtSFyaVFOO0TzQ0XBTmQygzoC3VjPakO2k3WBh5TPsMvwT6IC2Hd3DaJcZkXRnbM+yAtIqZwHgZs0H3wcIyUn8apizIxTRe3kS+RwNlvJAY1iJEYdYujR8Thk88iIGlOuKsdYWTHvA/SImKKACkq0bxME8e8sYDNgBfwrl8J/vXdYWTqcSq6lYbD+5ywYu5odNF1Z7Z+DNODVmBKwhJ8vP3cPYpxmRdGdkzmmqaWFtGitrQAl8TPnHaK9eN4fdUK+CUFYcn2MyhqLD+pzEPc+m9w7d1lmDO4YSBTPxjIemoek7FsxyxIP12OzYnFrNW1b0ww88f00iJQZOFUTBIyEr7H/LUFmBb8d/gNGITRk33gyvu6ZoPhM39Ym5HE4vvgr7CrZCgCpz+F7p1tcLswExeuAYOn+WOqTxcI47bqmT+nz+CY8IIgBGDb4pcw4vlxGnkRKkXS+jkYu8MZy1d9iLemP41uRn/0GBd9NjLZXFmTS4twzJ7WtBcNKijKpMjJvokKaxd4eHRD1852D/W4wn13TA6Ht5eW0Wcj/hjicMwQ7pgcjhlicFdWeORyOBzT0NgNeYzJMRm8vbQMjzE5nHYEd0wOxwzhjslpf5ACZXlXkPjbeUi152Q3ghQy5GWcwW/JUjRTzCwxTYzZZs0fRrOaPgbsz3ngmCbGFF5EdASHwr7Gu+HjkXRlAXx1LeVUSZEcGYWwjcsRPiVSfLmQ+aHXRoJjGophxduq+XOnBU2flvbnmAutbF6toIbywwMJAeGUL6boRtAG8qWA8Bxx2/zQZyPjd2XbrPnTkqZPS/tzOO0foztmmzV/2CU1q+nT4v6c9ocKiuJrSI47iKi4ZGSVNXjjrAgrI72AY1EHcDj+CsqtO6GbmNMAug3pheOIijiM+MulsHbvKGa0L4zsmEbQ/BFT9MI1gR4yqpB7+BtsOZSFGicHVCVuwMRh8/CrpH49LskzcSx0F/ZfrIJ7X0/Y39iDxR9vhVTM11ALedYJhP4QhYs1rujbxxY3fv0CHwfnivntCyM7phE0f8QUvXBNoIcMQq3rC3j37fF45ukxmP7Pz7F0wFF8fzxHM5JKuYhetBjHu0/B6xOGYsCAJzHafyl27vhfeKr310DSg1gUcArdX5uOCb6DMMBnDPxXbMeOxT3FEu0L48eYumiz5k9LcE2g9osdevsOgHOtHNKMVCQeS0VBJ1tkllaqHZNyT+OXqH543sdZK7yxRIdOzqiX56pG7skIRI0cCR8nLY0LC3t0cm2finlGdkwjaP6IKXrhmkAPF1SOy2GrMP+LMFyosEevYeMw9oleeLavZmF0bVEu/rB0hIOtds0Sqm7LmTvWUY2iXAksGwhAC1Tj9q36Uu0JIzumETR/xBQBnZo+rdifY/6osg5gyYJKTF0wCxN9+7Gbq7WYo+GRji7wup6MlEzt+laiND8H9dGjFTq6uOH6idSGukF0C/kZxeJG+8LoXdk2a/5ooVPTpxX7c8wflawAF5VK1Ki1foQBnLP4XUsx75E+z8DfLxUbgvcgTS4M7bHeUekFxJ8phLOkEBrVS1v0GTUJfgnfIvjni6IYVw1Kz53GGfkdSArL292goPFjTJuBeHvDDEjWr0dowmVkpO7H1pge+HyODzS9/Q4Y8PanmCvZhpWhvyM9IxkRW0+h1+dvaxxXQND0ifgPfgqLRQH+wP7dv2LvwVQUqw1uwP6cdoPVX17EgmGH8OF0f8yevwGHb/XBsCds8ceRCBy+XAqy/gtmbv4Gfy39Pwwa8iJen/0J1h63wrCxfVGTdhwR0cmQKgDrfm9g854ZKF09BkPGvcaOtRHH7X0wtgeQFheF6OQbYMXaDear+dMSXBPI7DF8CqccxUW3YeXsis766lGYH1sgg8LOGe7N6ABp3q9ZDbvmjmVG6LMRX4/JMRm8vbSMPhvxxwyHY4ZwaREOxwxo7Ia8K8sxGby9tAzvynI47QjumByOGcIdk9O+UcpRlHUJ8YmZTRdPtGMekLQIo1npEAaXFmn3mD7GvIWMuEM48FMQFuJz5P80TfcaTTPmPsaYcqR99yX2d5uGj+bMwXsLl2C2878xPeg4StXnVyArejNWfXMIWbdycepHW3Tvoj31uKV8giJtJxbsd4X/R+9hznsLsHK2I76bvg7HdL6fn/Pw4oR+46bjLb9nxe1mUOQgIfQ7RFzWnnNrClj7zE1A6Kb9uNyG5mh8x2xRWqQl6RAuLcIxARb5iPvnbly7Y3q9PIsbx/DPr69Cex1HazG6Y7YoLcJO2ax0SEv5XFrk4UMIWxKPIGJvhFpa5Gqxgj131BmQSzORIdV+yqmgkGXjyvUysYwWwjTNjDM4HBGNuOQslGm/BFetotEd7i7aq1fqj68sy8Cp6GO4LBNbkHCsq8mIizrY9Fh1KEuRceog9grXfewCpArB6S3YqWxgOcgdLm1Y6mRkxzRAWqStcGmRhwvldUQu24akjkMwaeo4DLZPRvCOJNyWX0HU1sV4Y+BErEoo0ZRVSZH402oEjn8SL+/JbFjXqiJc2PMtdsReQt6137DBfxymBZ1AEfMnKrmEgz/uRnSBBEd/2IR167bjcGoS9m5cqD7+yugIbJr7Lua9sQknpdXsWDk4HLwNh3Kq4eRUicTg6Rj2tzBI7i4pq0JR8q9Yv+0Ybtq7o6fbI8jbvx4/pMhQcjkGP/58BAV5R/HD+nVYt/Ewsu6lUQqDP4bScnE9soKqq7TTbwTNi7kpJojkh1NAE3lKLXTl69xHQZKdb5HzvBgqEVM4Dx5DmldteghN8NtJEo3WKaOYzidlk1qIVN1ufBrJT96kmHm+NGrbRU2ZujbXfyFF3lCoU4jllCesoRGYQptSKjRJutpNTRIFe/Wm8cuO0I0aFVVLUihVxo6qzKak88Wi/Cq7DMlO8sMMCkm/I2xp5FInbKe06rsXTcq0SNqjzjdUWlODPhuZYPBHBy1Ki7QVLi3SXrHo3AV9T67H4uX/wl51N7YDfHx7aha8W9iiQyftnpFAB7j26Iq+XTo1XBQ/7Bn4etQNElrCaehLCBiVieTM+rWdTbBi5362BwaMHAwPKwtY9/HB4M7sqJY94TvEBbVyKTJSE3HsQgE6dStCqVo14w6uxh1A6mgfeFnXB1yWA17G9H524lbbMbJjGiAt0la4tMhDhUWX8fji2BcYZ5GKnxa9gn5uT+KVf0YiS1uJoAkqdVjUXAlBAK5LX1c4d6hXBtJNpyYPDJJfQtjyhfgiLBUV9r0wbOIYPOHwOPp6CI6nwh15uTpsMuV4hpEd0wBpES10SodowaVFHn6orAyqx1/B3M+3YP9ZCQrPzofjtyE4fFUYKNTFLUivZSEpt6T58YTK60hJG4OpQ13FBB2wnlzZzduNxj6qkLVvDRYoXsKCOZPg268bHNnTtJ5H2IOhE3JjU3CtutlbQ5swele2RWkRLXRKh2jBpUUefmoz43FcGHARsLCDm8+zGDN2KAb2qOsWVkFaWA6NBHQt5OnHEX0iT73VgLISyNSjogIK5PyWCPs1gRjdYGhUjkqFlhMyxyzNzEFGfl1bFaiBrCCP9cDYE1EdAd5C1u+ncfFuY7OH97ip8LvwE7ZHXIVCn2+WV+rPMwDLFQzxc4t8/vnnaLG4pSv6P0UIWxOJCg932JSexq4oB7z/4Th0txHvA4J0SNRRxB3ei/DfM/BIVyd25yS4PdYVat9tNt8Gbv37wSZsC8IrXOFpU4T4Xcfh8P4cvNhd/8p2zv3HkPaikh7Ee1/8DpcutrhTnIML0cdQ9PI7+K9+ndhTwwGd7W/gx/dXICwnH9dOJeHW4FF47Ho0DhT3xlDv7ujaxRrShDOwViRg01fHkFeYjuSEDNQOn4m/Du9a/yKhDvagvC14/+sjyCl2QL/+trh6JAJ7wmJxrXMPPGrZAV37usHewhqdO1QhceUK7Pz9HFKuWWLApMch3/kDzjr1Qt9+fdC1xyA8/4wc/56/BL9mMQcsuoJTv51DpedA9Olkgw5s/7z1i/D1kQwUOzyGJx93hY2ehqnPRg9OWqStcGkRs8ew9qKCoqwIRYUFKMWj6NWzWyNJECG/GDLWs7XXKRfC4k2FEjYsvbK4GBU11ujo5tKo+ymiljCpgp2+/LsQK1qKIrklnN076227GhmTO6y0TaNzivsrbOHm6tjsW8b02Yivx+SYDN5eWkafjfhjhsMxQ7hjcjhmCNf84XDMgMZu2KoYk8Ph3B94V5bDMUO4Y3I4Zgh3TA7HDOGOyeGYIdwxORyzA/h/DQmyQz45saAAAAAASUVORK5CYII=;" vertex="1" parent="1">
          <mxGeometry x="740" y="765" width="58.48" height="30" as="geometry" />
        </mxCell>
        <mxCell id="cdJBSbvTCDBfxU9DAR3Z-117" value="" style="endArrow=none;html=1;rounded=0;" edge="1" parent="1">
          <mxGeometry width="50" height="50" relative="1" as="geometry">
            <mxPoint x="830" y="800" as="sourcePoint" />
            <mxPoint x="850" y="780" as="targetPoint" />
          </mxGeometry>
        </mxCell>
        <mxCell id="cdJBSbvTCDBfxU9DAR3Z-119" value="[4:0]" style="text;html=1;align=center;verticalAlign=middle;whiteSpace=wrap;rounded=0;" vertex="1" parent="1">
          <mxGeometry x="790" y="765" width="60" height="30" as="geometry" />
        </mxCell>
      </root>
    </mxGraphModel>
  </diagram>
</mxfile>
